<svg width="20" height="21" viewBox="0 0 20 21" fill="none" xmlns="http://www.w3.org/2000/svg">
<path fill-rule="evenodd" clip-rule="evenodd" d="M10 18.668C14.4183 18.668 18 15.0862 18 10.668C18 6.24969 14.4183 2.66797 10 2.66797C5.58172 2.66797 2 6.24969 2 10.668C2 15.0862 5.58172 18.668 10 18.668ZM14.7332 8.39118C15.0261 8.09829 15.0261 7.62341 14.7332 7.33052C14.4403 7.03763 13.9654 7.03763 13.6725 7.33053L8.5437 12.4594L6.27859 10.5636C5.96096 10.2977 5.48794 10.3397 5.22209 10.6573C4.95623 10.975 4.99821 11.448 5.31585 11.7138L8.10731 14.0502C8.40525 14.2996 8.84429 14.2801 9.11902 14.0054L14.7332 8.39118Z" fill="#2170F4"/>
</svg>
